<?xml version="1.0" encoding="UTF-8"?>
<svg id="Layer_1" xmlns="http://www.w3.org/2000/svg" version="1.1" xmlns:xlink="http://www.w3.org/1999/xlink" viewBox="0 0 1200 320">
  <!-- Generator: Adobe Illustrator 29.6.1, SVG Export Plug-In . SVG Version: 2.1.1 Build 9)  -->
  <defs>
    <style>
      .st0 {
        fill: url(#linear-gradient2);
      }

      .st1 {
        fill: #27282d;
      }

      .st2 {
        fill: url(#linear-gradient1);
      }

      .st3 {
        fill: url(#linear-gradient4);
      }

      .st4 {
        fill: url(#linear-gradient3);
      }

      .st5 {
        fill: #ec1c24;
      }

      .st6 {
        fill: url(#linear-gradient);
      }
    </style>
    <linearGradient id="linear-gradient" x1="80.45" y1="142.52" x2="159.06" y2="145.97" gradientUnits="userSpaceOnUse">
      <stop offset="0" stop-color="#22b6e3"/>
      <stop offset="1" stop-color="#2b7bd9"/>
    </linearGradient>
    <linearGradient id="linear-gradient1" x1="81.64" y1="115.57" x2="160.25" y2="119.03" xlink:href="#linear-gradient"/>
    <linearGradient id="linear-gradient2" x1="80.06" y1="151.48" x2="158.67" y2="154.93" xlink:href="#linear-gradient"/>
    <linearGradient id="linear-gradient3" x1="79.48" y1="164.73" x2="158.08" y2="168.19" gradientTransform="translate(162.62 -56.93) rotate(45)" xlink:href="#linear-gradient"/>
    <linearGradient id="linear-gradient4" x1="78.63" y1="184.01" x2="157.24" y2="187.47" gradientTransform="translate(170.29 -38.43) rotate(45)" xlink:href="#linear-gradient"/>
  </defs>
  <g>
    <path class="st1" d="M178.12,211.92v-110.8h81.92v26.14h-51.07v23.25h44.99v24.78h-44.99v36.63h-30.85Z"/>
    <path class="st1" d="M272.54,139.12c7.6-7.6,17.63-11.4,30.25-11.4s21.74,3.5,29.18,10.34c7.45,6.84,11.1,16.42,11.1,28.42,0,3.8-.3,7.45-.76,10.94h-51.53v4.26c0,6.08,5.17,10.03,12.01,10.03s10.64-2.13,12.31-6.23h28.58c-1.52,8.51-5.93,15.35-13.22,20.37-7.3,5.02-16.42,7.6-27.21,7.6-13.22,0-23.56-3.8-31.01-11.55-7.45-7.75-11.1-18.09-11.1-31.16s3.8-24.02,11.4-31.62ZM290.78,159.03h23.25v-.61c0-5.47-4.56-9.12-11.7-9.12s-11.55,3.65-11.55,9.12v.61Z"/>
    <path class="st1" d="M388.74,152.49v36.93h15.81v22.5h-22.65c-15.81,0-22.04-7.9-22.04-22.04v-37.39h-14.44v-23.25h14.44v-25.08h28.88v25.08h15.81v23.25h-15.81Z"/>
    <path class="st1" d="M414.57,211.92v-113.99h29.03v46.05h1.52c5.02-10.79,13.83-16.26,26.75-16.26,19.46,0,28.27,13.38,28.27,35.26v48.94h-29.18v-45.9c0-9.88-4.26-14.9-12.77-14.9-9.58,0-14.59,6.38-14.59,16.57v44.23h-29.03Z"/>
    <path class="st1" d="M563.85,129.24v23.25h-22.8v59.43h-29.03v-58.52c0-5.02.15-8.21,1.98-12.92,2.74-6.38,8.66-11.25,22.04-11.25h27.82Z"/>
    <path class="st1" d="M604.89,211.92v-110.8h30.85v42.71h42.25v-42.71h30.85v110.8h-30.85v-44.23h-42.25v44.23h-30.85Z"/>
    <path class="st1" d="M731.11,139.12c7.6-7.6,17.63-11.4,30.25-11.4s21.74,3.5,29.18,10.34c7.45,6.84,11.1,16.42,11.1,28.42,0,3.8-.3,7.45-.76,10.94h-51.53v4.26c0,6.08,5.17,10.03,12.01,10.03s10.64-2.13,12.31-6.23h28.58c-1.52,8.51-5.93,15.35-13.22,20.37-7.3,5.02-16.42,7.6-27.21,7.6-13.22,0-23.56-3.8-31.01-11.55-7.45-7.75-11.1-18.09-11.1-31.16s3.8-24.02,11.4-31.62ZM749.35,159.03h23.25v-.61c0-5.47-4.56-9.12-11.7-9.12s-11.55,3.65-11.55,9.12v.61Z"/>
    <path class="st1" d="M835.85,162.07h20.37v-4.1c0-5.47-2.89-8.21-8.82-8.21-6.23,0-9.42,2.58-9.73,7.6h-28.58c1.82-19.61,16.72-29.64,39.67-29.64,24.17,0,36.48,11.55,36.48,30.85v33.59h8.82v19.76h-19c-10.79,0-15.05-3.04-16.87-9.88l-.46-1.98h-1.22c-2.89,8.06-12.62,13.38-24.17,13.38-15.96,0-26.6-10.18-26.6-25.54,0-16.26,11.7-25.84,30.09-25.84ZM834.94,186.24c0,3.8,2.89,5.78,8.66,5.78,7.9,0,12.62-4.1,12.62-11.4v-2.13h-13.83c-5.02,0-7.45,1.98-7.45,5.93v1.82Z"/>
    <path class="st1" d="M902.02,211.92v-113.99h29.03v113.99h-29.03Z"/>
    <path class="st1" d="M980.27,152.49v36.93h15.81v22.5h-22.65c-15.81,0-22.04-7.9-22.04-22.04v-37.39h-14.44v-23.25h14.44v-25.08h28.88v25.08h15.81v23.25h-15.81Z"/>
    <path class="st1" d="M1006.09,211.92v-113.99h29.03v46.05h1.52c5.02-10.79,13.83-16.26,26.75-16.26,19.46,0,28.27,13.38,28.27,35.26v48.94h-29.18v-45.9c0-9.88-4.26-14.9-12.77-14.9-9.58,0-14.59,6.38-14.59,16.57v44.23h-29.03Z"/>
  </g>
  <g>
    <path class="st6" d="M120.45,151.27c-.42-.42-.63-1.01-.57-1.61l-.15-20.61c.18-1.65,2.18-2.35,3.35-1.18l20.34,20.34c.77.77.77,2.02,0,2.79l-10.23,10.23c-.77.77-2.02.77-2.79,0l-9.97-9.97Z"/>
    <path class="st2" d="M115.88,142.23l.34-20.12c.08-.61-.12-1.23-.56-1.66l-31.17-31.17c-1.17-1.17-3.18-.46-3.35,1.18l-1.99,18.46c-.06.59.14,1.18.57,1.61l32.83,32.83c1.15,1.15,3.12.49,3.35-1.12Z"/>
    <path class="st0" d="M114.66,177.14l.34-20.59c.08-.61-.12-1.23-.56-1.66l-28.56-28.56c-1.17-1.17-3.18-.46-3.35,1.18l-1.99,18.46c-.06.59.14,1.18.57,1.61l30.21,30.68c1.15,1.15,3.12.49,3.35-1.12Z"/>
    <rect class="st4" x="140.83" y="158.36" width="18.41" height="18.94" rx="1.97" ry="1.97" transform="translate(-74.73 155.25) rotate(-45)"/>
    <rect class="st3" x="122.32" y="176.87" width="18.41" height="18.94" rx="1.97" ry="1.97" transform="translate(-93.24 147.58) rotate(-45)"/>
    <rect class="st5" x="103.78" y="195.33" width="18.49" height="19.03" rx="9.25" ry="9.25" transform="translate(-111.74 139.92) rotate(-45)"/>
  </g>
  <rect class="st5" x="1102.19" y="194.15" width="18.49" height="19.03" rx="9.25" ry="9.25" transform="translate(181.52 845.55) rotate(-45)"/>
</svg>