<?xml version="1.0" encoding="UTF-8"?>
<svg id="Layer_1" xmlns="http://www.w3.org/2000/svg" version="1.1" xmlns:xlink="http://www.w3.org/1999/xlink" viewBox="0 0 16 16">
  <!-- Generator: Adobe Illustrator 29.6.1, SVG Export Plug-In . SVG Version: 2.1.1 Build 9)  -->
  <defs>
    <style>
      .st0 {
        fill: url(#linear-gradient2);
      }

      .st1 {
        fill: url(#linear-gradient1);
      }

      .st2 {
        fill: url(#linear-gradient4);
      }

      .st3 {
        fill: url(#linear-gradient3);
      }

      .st4 {
        fill: #ec1c24;
      }

      .st5 {
        fill: url(#linear-gradient);
      }
    </style>
    <linearGradient id="linear-gradient" x1="3.29" y1="6.95" x2="12.47" y2="7.36" gradientUnits="userSpaceOnUse">
      <stop offset="0" stop-color="#22b6e3"/>
      <stop offset="1" stop-color="#2b7bd9"/>
    </linearGradient>
    <linearGradient id="linear-gradient1" x1="3.43" y1="3.81" x2="12.61" y2="4.21" xlink:href="#linear-gradient"/>
    <linearGradient id="linear-gradient2" x1="3.25" y1="8" x2="12.43" y2="8.4" xlink:href="#linear-gradient"/>
    <linearGradient id="linear-gradient3" x1="3.18" y1="9.55" x2="12.36" y2="9.95" gradientTransform="translate(10.35 -5.17) rotate(45)" xlink:href="#linear-gradient"/>
    <linearGradient id="linear-gradient4" x1="3.08" y1="11.8" x2="12.26" y2="12.2" gradientTransform="translate(11.25 -3.01) rotate(45)" xlink:href="#linear-gradient"/>
  </defs>
  <path class="st5" d="M7.96,7.97s-.07-.12-.07-.19l-.02-2.41c.02-.19.25-.27.39-.14l2.38,2.38c.09.09.09.24,0,.33l-1.19,1.19c-.09.09-.24.09-.33,0l-1.16-1.16Z"/>
  <path class="st1" d="M7.43,6.92l.04-2.35c0-.07-.01-.14-.07-.19L3.76.73c-.14-.14-.37-.05-.39.14l-.23,2.16c0,.07.02.14.07.19l3.83,3.83c.13.13.36.06.39-.13Z"/>
  <path class="st0" d="M7.29,11l.04-2.4c0-.07-.01-.14-.07-.19l-3.33-3.33c-.14-.14-.37-.05-.39.14l-.23,2.16c0,.07.02.14.07.19l3.53,3.58c.13.13.36.06.39-.13Z"/>
  <rect class="st3" x="10.34" y="8.8" width="2.15" height="2.21" rx=".23" ry=".23" transform="translate(-3.66 10.98) rotate(-45)"/>
  <rect class="st2" x="8.18" y="10.96" width="2.15" height="2.21" rx=".23" ry=".23" transform="translate(-5.82 10.08) rotate(-45)"/>
  <rect class="st4" x="6.01" y="13.12" width="2.16" height="2.22" rx="1.08" ry="1.08" transform="translate(-7.99 9.18) rotate(-45)"/>
</svg>